<?xml version="1.0" encoding="UTF-8" standalone="no"?><svg xmlns:svg="http://www.w3.org/2000/svg" xmlns="http://www.w3.org/2000/svg" version="1.1" style="overflow:visible" viewBox="0 0 100 100" height="700px" width="700px"><rect fill-opacity="0" fill="rgb(255,219,237)" height="500" width="500" y="-250" x="-250" /><svg version="1.1" y="-250" x="-250" viewBox="-250 -250 500 500" height="500px" width="500px" style="overflow:visible"><g transform="rotate(0,0,0)" stroke-linejoin="round" fill="#fff"><path stroke-linecap="butt" stroke-linejoin="round" stroke="none" fill="rgb(255,255,255)" d="m-60.361-131.691s-54.0848 69.3265-63.619 137.368c22.5602 85.8454 123.979 189.319 123.979 189.319s101.42-103.486 123.982-189.319c-9.53513-66.4384-63.619-137.368-63.619-137.368l-60.3601 85.5641z" /><path stroke-linecap="butt" stroke-linejoin="round" stroke="none" fill="rgb(221,221,221)" d="m-60.361-195.0003s-77.226 97.6447-67.3045 181.74c0.72917 6.17953 1.99437 12.5125 3.68395 18.9413c15.2319-67.2401 63.619-128.473002 63.619-128.473002l60.3601 85.5641l60.3601-85.5641s48.3872 61.2311 63.619 128.473c1.68958-6.42833 2.95488-12.7613 3.68395-18.9413c9.92289-84.092-67.3045-181.74-67.3045-181.74l-60.3601 85.5641l-60.3601-85.5641z" /><path stroke-linecap="butt" stroke-linejoin="round" stroke-width="10" stroke-opacity="1" stroke="rgb(68,68,68)" fill="none" d="m-127.665-13.261c10.4693 88.6898 127.663 208.261 127.663 208.261s117.2-119.571 127.668-208.261c9.92288-84.092-67.3045-181.74-67.3045-181.74l-60.3601 85.5641l-60.3609-85.5641s-77.2267 97.6447-67.3053 181.74z" /></g></svg></svg>
